<svg width="84" height="23" viewBox="0 0 84 23" fill="none" xmlns="http://www.w3.org/2000/svg">
<path d="M81.5305 5.26674C82.3668 5.26674 83.1665 5.26674 83.9995 5.26674C83.4757 7.77973 82.9593 10.2616 82.4398 12.7434C82.253 13.6355 82.0823 14.5308 81.8676 15.4153C81.5488 16.7346 80.6009 17.5096 79.2773 17.5762C77.899 17.646 76.7847 16.9675 76.3543 15.6869C75.9217 14.402 75.576 13.087 75.196 11.7848C74.9663 10.9958 74.7645 10.1983 74.5015 9.42106C74.4295 9.20744 74.1826 9.05179 74.0163 8.8693C73.852 9.05501 73.603 9.21496 73.5375 9.42965C72.9342 11.4295 72.3792 13.4444 71.7781 15.4454C71.2725 17.1275 69.819 17.9294 68.1379 17.4774C67.145 17.2112 66.4333 16.5757 66.2132 15.5753C65.4618 12.1573 64.7651 8.72653 64.0352 5.24205C64.8209 5.24205 65.5681 5.22595 66.312 5.2603C66.4215 5.26567 66.5814 5.49754 66.6136 5.64782C67.2287 8.53008 67.8288 11.4156 68.4321 14.301C68.4503 14.388 68.445 14.4943 68.4933 14.5598C68.6382 14.7541 68.8056 14.9333 68.9634 15.119C69.1384 14.9451 69.4089 14.8002 69.4733 14.5909C69.9027 13.2093 70.287 11.8149 70.6864 10.4248C70.8646 9.80644 71.032 9.18597 71.2274 8.57302C71.6568 7.2226 72.7249 6.40032 74.0259 6.40032C75.4042 6.39925 76.3661 7.11847 76.803 8.55692C77.3902 10.487 77.9366 12.43 78.5001 14.3676C78.5356 14.4878 78.5409 14.637 78.6171 14.7186C78.7621 14.8721 78.9413 15.0729 79.1206 15.0879C79.243 15.0986 79.4673 14.8485 79.5113 14.6789C79.7035 13.9361 79.8516 13.1814 80.0084 12.43C80.4861 10.1392 80.9605 7.84736 81.4382 5.55658C81.4575 5.46963 81.4919 5.38697 81.5305 5.26674Z" fill="#F66B0E"/>
<path d="M25.906 14.8601C26.9644 15.5653 28.0357 15.7038 29.1683 15.5632C30.7259 15.371 31.7542 14.4457 32.0473 12.8999C32.2674 11.7416 32.233 10.5877 31.8347 9.46373C31.5428 8.64145 30.9813 8.05963 30.1666 7.75692C29.018 7.32968 27.8414 7.30821 26.7079 7.76765C25.336 8.32371 24.7649 9.47232 24.7466 10.8796C24.7101 13.6685 24.7316 16.4595 24.7305 19.2484C24.7295 20.4249 24.7305 21.6025 24.7305 22.8155C23.9104 22.8155 23.1321 22.8155 22.3034 22.8155C22.2938 22.6781 22.2744 22.5246 22.2744 22.3711C22.2734 18.6161 22.2455 14.8601 22.2948 11.1051C22.3067 10.2474 22.4526 9.33921 22.7672 8.54592C23.6431 6.33457 25.4036 5.22783 27.7298 5.04641C28.522 4.98415 29.3497 5.02923 30.1258 5.19025C32.5508 5.69371 34.1395 7.49284 34.5034 10.0123C34.6891 11.2994 34.6848 12.5811 34.3681 13.8467C33.7648 16.262 31.6898 17.9635 29.1908 18.1202C28.1989 18.1824 27.2221 18.1019 26.2946 17.7284C26.1293 17.6618 25.9318 17.4278 25.9232 17.2625C25.8834 16.4992 25.906 15.7296 25.906 14.8601Z" fill="#F66B0E"/>
<path d="M19.7883 17.5723C19.0476 17.5723 18.2811 17.5723 17.4395 17.5723C17.4395 17.3694 17.4395 17.1805 17.4395 16.9915C17.4395 15.0775 17.4545 13.1646 17.4298 11.2506C17.4234 10.7386 17.3558 10.2115 17.2141 9.72094C16.9092 8.67001 16.2018 7.96582 15.1476 7.65237C14.2009 7.37112 13.2369 7.37004 12.2912 7.647C11.1479 7.98299 10.4426 8.7677 10.1603 9.91524C9.91664 10.9028 9.91127 11.9033 10.1582 12.8898C10.4727 14.1447 11.2671 14.938 12.538 15.2396C13.7543 15.5284 14.8514 15.3674 16.2608 14.6567C16.2608 15.5177 16.2716 16.3475 16.2469 17.1772C16.2437 17.2803 16.0676 17.4241 15.942 17.4714C12.5767 18.7467 7.87168 17.2749 7.58507 12.2071C7.53247 11.2732 7.58829 10.3017 7.78795 9.38924C8.34294 6.85371 10.3696 5.19735 12.9696 5.02988C14.2513 4.94723 15.5094 5.04062 16.6849 5.62137C18.4529 6.49409 19.6122 7.93469 19.7453 9.86371C19.9203 12.4046 19.7883 14.9659 19.7883 17.5723Z" fill="#F66B0E"/>
<path d="M50.7812 11.4294C50.7984 9.33502 51.3352 7.46074 53.1042 6.14252C56.1647 3.86248 61.0994 4.966 62.5422 8.2916C63.4364 10.3516 63.4503 12.4942 62.5293 14.5435C61.4483 16.948 59.3958 17.8562 56.8678 17.8261C53.0871 17.7811 50.7931 15.3561 50.7812 11.4294ZM56.9848 7.47255C55.0644 7.46825 53.7773 8.29483 53.451 9.92757C53.2803 10.7831 53.2642 11.7117 53.3909 12.5758C53.6259 14.1796 54.5459 15.0383 56.1293 15.2917C56.651 15.3754 57.2038 15.3743 57.7298 15.3078C59.2971 15.1103 60.3104 14.1549 60.5659 12.608C60.669 11.9822 60.6915 11.322 60.6239 10.6919C60.3899 8.51811 59.1854 7.47792 56.9848 7.47255Z" fill="#F66B0E"/>
<path d="M39.0538 6.40398C40.8314 6.40398 42.6144 6.40398 44.4404 6.40398C44.4404 7.2327 44.4404 8.02277 44.4404 8.86008C42.6509 8.86008 40.8701 8.86008 39.0312 8.86008C39.0312 11.7724 39.0312 14.6396 39.0312 17.5477C38.1832 17.5477 37.3931 17.5477 36.5483 17.5477C36.5483 17.3813 36.5483 17.2256 36.5483 17.07C36.5483 13.5125 36.544 9.95394 36.5504 6.39647C36.5536 4.82706 36.9734 3.3972 38.0372 2.20135C39.0924 1.01624 40.4471 0.432278 42.0015 0.322784C42.8506 0.26267 43.7083 0.31205 44.5929 0.31205C44.5929 1.12359 44.5929 1.90078 44.5929 2.74775C44.0078 2.74775 43.4389 2.72306 42.8742 2.75526C42.3429 2.78532 41.7943 2.80464 41.2887 2.94956C39.8052 3.3768 38.9002 4.79807 39.0538 6.40398Z" fill="#F66B0E"/>
<path d="M49.0741 22.9296C48.3431 22.9296 47.6325 22.95 46.9261 22.906C46.8263 22.8996 46.6717 22.5732 46.6706 22.3939C46.6524 20.1064 46.6567 17.8188 46.6567 15.5302C46.6567 10.633 46.6588 5.73587 46.6599 0.838708C46.6599 0.681982 46.6599 0.524182 46.6599 0.332031C47.4833 0.332031 48.2604 0.332031 49.0741 0.332031C49.0741 7.83987 49.0741 15.3509 49.0741 22.9296Z" fill="#F66B0E"/>
<path d="M6.35181 17.5514C3.0627 17.8413 0.174002 15.4453 0.0677291 12.1819C-0.047132 8.62876 0.0215699 5.06914 0.00976179 1.51167C0.00868833 1.12415 0.00976179 0.735551 0.00976179 0.322266C0.834185 0.322266 1.59635 0.322266 2.42506 0.322266C2.42506 1.93998 2.42506 3.55448 2.42506 5.22157C3.73148 5.22157 4.97348 5.22157 6.25198 5.22157C6.25198 6.06425 6.25198 6.85432 6.25198 7.70236C4.98529 7.70236 3.74328 7.70236 2.54959 7.70236C2.54959 9.32759 2.42292 10.9067 2.58501 12.4557C2.74925 14.0186 4.0299 15.0009 5.63366 15.1147C5.86231 15.1308 6.09096 15.1404 6.35074 15.1544C6.35181 15.9595 6.35181 16.7367 6.35181 17.5514Z" fill="#F66B0E"/>
<path d="M7.99609 3.45209C10.9256 0.553726 17.0175 0.742656 19.5917 3.49396C19.1913 3.81922 18.793 4.14233 18.4087 4.45364C15.256 2.37862 12.3125 2.41834 9.00945 4.57064C8.68097 4.20889 8.34712 3.84069 7.99609 3.45209Z" fill="#F66B0E"/>
<path d="M53.2695 20.5664C53.2835 20.5181 53.2846 20.4987 53.2942 20.4848C53.5411 20.1348 53.7215 19.6346 54.0585 19.4822C54.358 19.3469 54.8379 19.5766 55.2286 19.6829C57.5462 20.3162 61.5063 19.2932 62.9866 16.9413C63.0241 16.8811 63.0649 16.8221 63.1294 16.7266C63.5866 17.0261 64.001 17.2966 64.4121 17.5649C62.7257 20.8369 56.7315 22.6521 53.2695 20.5664Z" fill="#F66B0E"/>
</svg>
